<svg width="14" height="20" viewBox="0 0 14 20" fill="none" xmlns="http://www.w3.org/2000/svg">
<path d="M9.05078 16.7188C9.16331 16.5081 9.42608 16.4253 9.63867 16.542C10.2107 16.8569 10.582 17.3082 10.582 17.834C10.5819 18.4329 10.1147 18.9207 9.4043 19.2432C8.74824 19.5408 7.89412 19.7002 7 19.7002C6.10589 19.7002 5.25173 19.5408 4.5957 19.2432C3.88542 18.9207 3.41808 18.4329 3.41797 17.834C3.41797 17.3092 3.78802 16.8582 4.3584 16.543L4.44043 16.5088C4.63455 16.4489 4.8485 16.5346 4.94727 16.7197C5.05913 16.9297 4.98352 17.1931 4.77441 17.3096L4.77344 17.3105C4.59615 17.4085 4.46965 17.5092 4.38965 17.6035C4.30982 17.6976 4.28418 17.7754 4.28418 17.834C4.28426 17.902 4.32146 17.999 4.43945 18.1162C4.55607 18.232 4.73609 18.3517 4.97852 18.459C5.46261 18.6732 6.16327 18.8261 7 18.8262C7.83663 18.8262 8.53736 18.6732 9.02148 18.459C9.26409 18.3516 9.44491 18.2321 9.56152 18.1162C9.67949 17.999 9.71574 17.9019 9.71582 17.834C9.71582 17.7753 9.69055 17.6968 9.61035 17.6025C9.55008 17.5317 9.46315 17.4579 9.34863 17.3838L9.22461 17.3096C9.01506 17.1938 8.93852 16.9292 9.05078 16.7188ZM7 0.299805C10.4221 0.299912 13.2002 3.13253 13.2002 6.60645C13.2001 6.93569 13.057 7.4353 12.8311 8.03613C12.6014 8.64669 12.2745 9.39067 11.8828 10.2207C11.0993 11.8812 10.0517 13.9008 8.99316 15.916C8.80372 16.2767 8.63427 16.5985 8.49023 16.875L8.1377 17.5605C7.91736 18.0023 7.49037 18.2705 7 18.2705C6.5094 18.2704 6.08266 18.0025 5.8623 17.5605C5.65612 17.1476 5.30621 16.4893 4.89941 15.7227C3.86843 13.7801 2.84741 11.8297 2.08398 10.21C1.70235 9.40024 1.38307 8.66973 1.15918 8.06152C0.938183 7.46117 0.799805 6.95534 0.799805 6.60645C0.799838 3.13253 3.57781 0.299805 7 0.299805ZM7 1.1748C4.0623 1.17491 1.66602 3.60867 1.66602 6.60645C1.66608 6.7303 1.69967 6.91897 1.77246 7.1709C1.84429 7.41946 1.94977 7.71641 2.08203 8.05078C2.34649 8.71934 2.7151 9.52781 3.12891 10.3838C3.9563 12.0952 4.95941 13.9856 5.66211 15.3096C6.06915 16.0765 6.42302 16.7428 6.63477 17.167C6.70933 17.3163 6.83925 17.3964 7 17.3965C7.16084 17.3965 7.29064 17.3164 7.36523 17.167C7.54799 16.8014 7.84959 16.2284 8.22852 15.5068C8.95024 14.1325 9.98083 12.17 10.8311 10.4102C11.2562 9.53008 11.6353 8.70365 11.9072 8.02832C12.0432 7.69054 12.1507 7.39294 12.2246 7.14746C12.2999 6.89723 12.335 6.71701 12.335 6.60645C12.3349 3.60785 9.93776 1.1748 7 1.1748ZM7 2.58008C9.18688 2.58008 10.9599 4.38958 10.96 6.60645C10.96 8.82334 9.1869 10.6328 7 10.6328C4.81319 10.6327 3.04004 8.82327 3.04004 6.60645C3.04007 4.38965 4.81321 2.58018 7 2.58008ZM7 3.4541C5.29759 3.45421 3.90628 4.865 3.90625 6.60645C3.90625 8.34792 5.29757 9.75868 7 9.75879C8.7025 9.75879 10.0947 8.3476 10.0947 6.60645C10.0947 4.86531 8.70248 3.4541 7 3.4541Z" fill="#316FAF" stroke="#316FAF" stroke-width="0.4"/>
</svg>
